<svg width="140" height="49" viewBox="0 0 140 49" fill="none" xmlns="http://www.w3.org/2000/svg">
<g clip-path="url(#clip0_136_671)">
<path fill-rule="evenodd" clip-rule="evenodd" d="M33.7721 19.0392C33.6985 19.0146 5.15811 6.17419 4.83881 6.0512C4.05284 5.70682 2.92302 6.46937 3.53705 7.42871C3.6353 7.5763 5.87039 10.7987 5.87039 10.7987C5.87039 10.7987 5.20723 9.71636 5.28091 9.1998C5.30548 8.83082 5.6739 8.68323 5.91951 8.80622C6.16512 8.90462 33.0353 20.4167 33.1827 20.4905C34.1651 20.9086 34.9511 20.6135 35.2704 19.9001C35.4669 19.3097 35.6388 18.6702 35.7616 18.0306C35.6634 18.3504 35.0739 19.5557 33.7721 19.0392ZM32.8879 21.9664C32.7897 21.9418 8.32653 11.7334 8.10548 11.635C7.24583 11.2907 6.65635 12.1024 7.22126 12.865C7.29495 12.9634 9.21074 15.4478 9.21074 15.4478C9.21074 15.4478 8.79319 14.7344 8.76863 14.4147C8.74407 14.1195 8.96513 13.7751 9.57916 14.0211C10.2178 14.2917 32.0528 23.0979 32.102 23.1225C32.7651 23.3685 33.3792 23.3439 33.6739 22.9503C34.116 22.3107 34.4599 21.7204 34.8037 21.0316C34.5827 21.4006 33.8949 22.3599 32.8879 21.9664ZM35.9335 14.1933C35.909 14.5131 35.6879 15.9398 34.0914 15.1772C33.8213 15.0542 1.89144 0.295177 1.44934 0.0737912C0.8353 -0.196791 -0.491015 0.270578 0.196704 1.59889C0.221265 1.64809 2.75109 5.68223 2.72653 5.63303C2.67741 5.58383 2.30898 4.67369 2.13705 3.83735C2.06337 3.49297 2.35811 3.19779 2.82477 3.39457C2.8739 3.41917 33.9441 17.0221 34.1651 17.1205C34.8283 17.4403 35.9335 17.2927 35.9827 16.4317C35.9827 16.1611 36.0072 15.9152 36.0072 15.6446C36.0072 15.1526 35.9827 14.6852 35.9335 14.1933Z" fill="#DE3939"/>
<path fill-rule="evenodd" clip-rule="evenodd" d="M35.7856 13.2093C34.6067 7.23191 29.2277 2.70581 22.7926 2.70581C20.0417 2.70581 17.4874 3.54216 15.3751 4.94426C15.3751 4.94426 33.9926 13.5291 34.0172 13.5537C35.7365 14.3163 35.7856 13.2093 35.7856 13.2093ZM32.8874 23.9834C32.8874 23.9834 32.4944 24.254 31.9049 24.0326C31.8803 24.008 14.0733 17.3173 10.4137 15.9643C9.84876 15.743 9.57858 16.1611 9.57858 16.4071C9.99613 23.1963 15.7435 28.5833 22.7681 28.5833C26.8452 28.5833 30.4558 26.7876 32.8874 23.9834ZM119.442 12.2008C119.859 12.2992 120.129 12.5206 120.301 12.8649C120.449 13.2093 120.522 14.0457 120.522 15.3494V19.3097H117.084V15.3494C117.084 14.0457 117.158 13.2093 117.329 12.8649C117.477 12.5206 117.747 12.2992 118.165 12.2008V11.2661H112.638V12.2008C113.105 12.2746 113.424 12.5206 113.621 12.9141C113.743 13.1847 113.817 13.9965 113.817 15.3494V24.6968C113.817 26.0251 113.768 26.8368 113.621 27.1074C113.424 27.5256 113.105 27.747 112.638 27.8208V28.7555H118.14V27.8208C117.722 27.7224 117.452 27.5256 117.305 27.1566C117.158 26.8122 117.059 25.9759 117.059 24.6722V20.4658H120.498V24.6968C120.498 26.0005 120.424 26.8122 120.277 27.1812C120.129 27.5256 119.835 27.747 119.417 27.8454V28.7801H124.943V27.8454C124.477 27.7716 124.158 27.5502 123.961 27.132C123.838 26.8614 123.765 26.0497 123.765 24.7214V15.374C123.765 14.0211 123.838 13.2093 123.961 12.9387C124.158 12.5452 124.477 12.2992 124.943 12.2254V11.2907H119.417V12.2008H119.442ZM57.7189 24.1556C57.7189 25.4347 57.6698 26.2219 57.5961 26.4925C57.4979 26.9352 57.326 27.2304 57.1295 27.4026C56.8347 27.6486 56.4663 27.7962 55.9996 27.7962H55.4838V28.7555H63.761V27.7962H63.2452C62.8031 27.7962 62.4347 27.6732 62.1645 27.4272C61.9189 27.1812 61.7224 26.9106 61.6488 26.5908C61.5751 26.2711 61.526 25.4593 61.526 24.1556V7.99446C61.526 6.73995 61.5751 5.9528 61.6488 5.65762C61.7716 5.26404 61.9189 4.96886 62.1154 4.77208C62.3856 4.50149 62.7786 4.3785 63.2452 4.3785H63.761V3.44376H57.3014L53.0031 20.1461L48.5575 3.44376H42.0733V4.4031H42.5891C43.0312 4.4031 43.3751 4.52609 43.6452 4.77208C43.9154 5.01806 44.0874 5.28864 44.161 5.60842C44.2593 5.9282 44.2838 6.73995 44.2838 8.01906V23.5161C44.2838 24.6476 44.2838 25.2871 44.2593 25.4101C44.161 25.9759 44.0628 26.4433 43.8909 26.7876C43.7435 27.1074 43.5224 27.378 43.2031 27.5502C42.9084 27.747 42.5891 27.8454 42.2207 27.8208H42.0488V28.7801H47.8452V27.7962C47.1084 27.7962 46.5681 27.5994 46.2488 27.2058C45.9049 26.8122 45.6838 26.2957 45.5856 25.6807C45.561 25.4101 45.5365 24.623 45.5365 23.3931V7.15812L51.333 28.7555H52.0944L57.7189 7.5271V24.1556ZM138.993 27.1074C138.796 26.8122 138.182 25.7053 137.151 23.2701L134.572 17.2681C134.572 17.2681 136.929 13.4799 137.814 12.7912C138.158 12.4714 138.575 12.2992 139.042 12.25V11.2907H134.154V12.25C135.849 12.25 135.652 13.6521 135.235 14.3654C135.087 14.6114 131.722 19.8509 131.722 19.8509V3.44376H127.277V4.4031C127.768 4.50149 128.087 4.72288 128.235 5.04266C128.382 5.36244 128.456 6.17418 128.456 7.5025V24.7214C128.456 26.0497 128.382 26.8368 128.259 27.132C128.063 27.5502 127.743 27.7716 127.277 27.8454V28.7801H132.926V27.8454C132.435 27.747 132.115 27.5502 131.968 27.2058C131.796 26.886 131.722 26.64 131.722 24.7214V21.8188L132.435 20.7118L134.596 25.5085C134.94 26.2711 135.087 26.8122 135.087 27.0828C135.087 27.255 135.014 27.4272 134.915 27.5748C134.793 27.7224 134.621 27.7962 134.375 27.7962V28.7309H140.024V27.7962C139.582 27.7716 139.263 27.5256 138.993 27.1074ZM71.2768 26.5171C71.154 26.9598 71.0066 27.255 70.8102 27.4272C70.5154 27.6978 70.1716 27.8208 69.7049 27.8208H69.1891V28.7801H77.4909V27.7962H76.9751C76.5084 27.7962 76.1645 27.6732 75.8944 27.4272C75.6488 27.1812 75.4768 26.9106 75.354 26.5908C75.2803 26.2711 75.2312 25.4593 75.2312 24.1556V4.89507H76.3856C77.4417 4.89507 78.2277 5.26404 78.7189 6.002C79.4066 7.01053 79.3084 8.43724 79.4803 10.3067H80.4382V3.44376H66.2417V10.3067H67.1996C67.3716 8.43724 67.2733 7.01053 67.961 6.002C68.4523 5.26404 69.2137 4.89507 70.2944 4.89507H71.4488V24.1556C71.3996 25.4347 71.3505 26.2219 71.2768 26.5171ZM96.0102 26.4925C97.9259 24.0326 98.1224 16.1365 96.133 13.5291C94.3891 11.2661 91.4172 10.9463 88.7154 10.9955V4.89507H91.8347C92.8909 4.89507 93.6768 5.26404 94.168 6.002C94.8558 7.01053 94.7575 8.43724 94.9295 10.3067H95.8873V3.44376H82.8207V4.4031C83.5575 4.4031 84.0488 4.50149 84.3189 4.72288C84.5891 4.94426 84.761 5.21485 84.8593 5.58382C84.9821 5.9282 85.0312 6.54316 85.0312 7.89607V24.0572C85.0312 25.4347 84.9821 26.2957 84.8593 26.6154C84.761 26.9598 84.5645 27.255 84.3189 27.4764C84.0488 27.6978 83.5575 27.7962 82.8207 27.7962V28.7555H90.8768C93.1119 28.7555 94.8312 27.993 96.0102 26.4925ZM89.0102 26.8614C88.7891 26.5171 88.6909 26.0005 88.6909 25.3363V24.4016V12.4714C89.8698 12.4714 90.7786 12.619 91.368 13.0125C91.9575 13.3815 92.4487 14.0457 92.7926 14.9804C93.6523 17.3173 93.6523 22.5075 92.8909 24.7952C92.5961 25.6315 92.2031 26.2711 91.6873 26.7138C91.1716 27.1566 90.5821 27.378 89.968 27.378C89.5505 27.378 89.2312 27.2058 89.0102 26.8614ZM109.298 26.0989C109.2 26.0005 109.151 25.8529 109.126 25.6561C109.077 25.4593 109.077 24.9428 109.077 24.131V17.7354C109.077 15.8414 109.003 14.636 108.905 14.1195C108.61 12.5452 107.628 10.7987 105.27 10.7741C104.41 10.7741 103.6 10.9955 102.789 11.4136C102.003 11.8564 101.365 12.4714 100.922 13.2831C100.48 14.0949 100.284 14.7836 100.21 15.9643C100.161 17.4402 101.07 18.0306 102.003 18.0306C102.936 18.0306 103.673 17.2927 103.673 16.3579C103.673 16.0381 103.575 15.7922 103.428 15.4724C103.182 15.005 101.954 14.1195 103.084 12.6928C103.428 12.3484 103.845 12.1516 104.336 12.1516C105.245 12.1516 105.491 12.7912 105.687 13.4307C105.786 13.7751 105.835 14.6114 105.835 15.9151V17.6862C103.428 19.4327 101.88 20.8594 101.143 21.9172C100.431 22.9749 99.94 23.9096 99.94 25.2625C99.94 27.255 101.045 28.9523 102.715 28.9277C104.386 28.9277 105.319 27.7962 105.81 26.1235C105.884 27.0828 106.105 27.7716 106.449 28.2389C106.817 28.7063 107.284 28.9277 107.922 28.9277C108.463 28.9277 109.151 28.7555 109.568 28.3373C109.986 27.9438 110.354 27.3042 110.747 26.3941L110.035 25.8283C109.838 26.2957 109.372 26.2219 109.298 26.0989ZM105.786 24.7214C104.631 26.64 101.905 25.4593 103.28 22.5321C103.747 21.5236 104.852 19.8755 105.786 18.9899V24.7214ZM13.754 41.0301C13.1154 40.6119 12.2312 40.4151 11.347 40.4151C11.0523 40.4151 10.4874 40.4397 10.1926 40.4889V37.9799H14.1961V36.9714H9.01367V46.245C9.40665 46.2942 10.0453 46.3434 10.8803 46.3434C12.1575 46.3434 13.4102 46.0482 14.1716 45.3102C14.6628 44.8183 14.933 44.1541 14.933 43.2932C14.933 42.2108 14.4663 41.4729 13.754 41.0301ZM13.1645 44.6953C12.6979 45.1872 11.961 45.4086 11.1996 45.4086C10.7821 45.4086 10.4628 45.384 10.1926 45.3348V41.3991C10.4874 41.3745 10.8803 41.3499 11.1505 41.3499C11.8137 41.3499 12.4277 41.4975 12.9189 41.8173C13.3856 42.137 13.6803 42.629 13.6803 43.3424C13.6803 43.9081 13.4838 44.3509 13.1645 44.6953ZM21.1961 42.1616C21.1961 40.8333 20.7049 39.4312 18.6663 39.4312C17.8312 39.4312 17.0207 39.6772 16.4803 40.0216L16.7505 40.8333C17.2172 40.5381 17.8558 40.3414 18.4944 40.3414C19.8698 40.3414 20.0172 41.3253 20.0172 41.8911V42.0386C17.4382 42.014 16.0137 42.8996 16.0137 44.5231C16.0137 45.4824 16.7014 46.4418 18.0523 46.4418C19.0102 46.4418 19.7224 45.9744 20.0909 45.4578H20.14L20.2382 46.2942H21.3435C21.2698 45.8268 21.2452 45.2856 21.2452 44.6953V42.1616H21.1961ZM20.0172 44.0065C20.0172 44.1295 19.9926 44.2771 19.9435 44.4001C19.747 44.9659 19.2067 45.507 18.3224 45.507C17.7084 45.507 17.1681 45.138 17.1681 44.3509C17.1681 43.0472 18.6663 42.8258 19.9926 42.8504V44.0065H20.0172ZM27.4838 42.2846H24.3154V39.6034H23.1119V46.2696H24.3154V43.244H27.4838V46.2696H28.6874V39.6034H27.4838V42.2846ZM33.2312 42.6044L36.1295 39.5788H34.6558L32.1751 42.4814H31.8803V39.5788H30.6768V46.245H31.8803V43.3178H32.126C33.2558 43.3178 33.8698 43.8097 34.3365 44.8921C34.533 45.4332 34.7786 45.9744 34.9505 46.2696H36.2277C35.933 45.7284 35.6874 45.0888 35.5154 44.6461C34.9751 43.4408 34.3119 42.7028 33.2312 42.6044ZM43.3014 40.4151C43.9646 40.4151 44.4067 40.5627 44.7014 40.7349L44.9716 39.8002C44.6523 39.628 44.0137 39.4558 43.2768 39.4558C41.0909 39.4558 39.6909 40.9563 39.6909 42.998C39.6909 45.0396 40.9926 46.4172 43.0067 46.4172C43.9154 46.4172 44.6031 46.1958 44.9224 46.0236L44.726 45.1134C44.3821 45.261 43.9154 45.4332 43.2277 45.4332C41.9014 45.4332 40.9189 44.4739 40.9189 42.9242C40.9435 41.5467 41.7786 40.4151 43.3014 40.4151ZM50.0558 42.7028V42.6782C50.8172 42.506 51.4558 42.014 51.4558 41.1777C51.4558 39.6772 49.6137 39.505 48.4838 39.505C47.6979 39.505 46.8382 39.5788 46.3716 39.6526V46.245C46.74 46.2696 47.5014 46.3188 48.2382 46.3188C49.54 46.3188 51.7505 46.0974 51.7505 44.3509C51.7505 43.4162 51.0382 42.8504 50.0558 42.7028ZM47.526 40.4151C47.8207 40.3905 48.0663 40.366 48.4593 40.366C49.6628 40.366 50.2523 40.6857 50.2523 41.3499C50.2523 42.137 49.3189 42.4076 48.4347 42.4076H47.526V40.4151ZM48.4838 45.507C48.0909 45.507 47.8452 45.4824 47.5014 45.4578V43.1702H48.3856C49.54 43.1702 50.4979 43.367 50.4979 44.3509C50.4979 45.3102 49.2944 45.507 48.4838 45.507ZM55.9259 39.4312C53.9856 39.4312 52.8067 41.0055 52.8067 43.0226C52.8067 45.0396 54.0347 46.3926 56.0979 46.3926C57.154 46.3926 57.8909 46.1712 58.3084 45.9744L58.1119 45.1134C57.6453 45.3102 57.1295 45.4578 56.2698 45.4578C55.0663 45.4578 54.0102 44.7937 53.9856 43.1456H58.6768C58.7014 43.0226 58.726 42.8258 58.726 42.5798C58.6768 41.3499 58.1119 39.4312 55.9259 39.4312ZM53.961 42.2846C54.0593 41.4483 54.5996 40.3168 55.8277 40.3168C57.2031 40.3168 57.5224 41.5221 57.5224 42.2846H53.961ZM65.5786 42.629L68.2067 39.6034H66.8067L64.5961 42.506H64.3505V39.6034H63.1961V42.506H62.9505L60.74 39.6034H59.34L61.9926 42.629C60.9856 42.7274 60.3961 43.3424 59.9786 44.4001C59.733 45.015 59.5119 45.7284 59.2417 46.2696H60.4207C60.6663 45.8514 60.8382 45.3348 61.0593 44.7445C61.4768 43.6621 62.0417 43.3178 62.9751 43.3178H63.1961V46.2696H64.3505V43.3178H64.547C65.4067 43.3178 66.0452 43.6375 66.4628 44.7445C66.6593 45.3348 66.8558 45.876 67.0768 46.2696H68.2803C68.0102 45.753 67.7891 45.0396 67.5435 44.4001C67.1751 43.3178 66.5856 42.7274 65.5786 42.629ZM71.547 43.0226C71.1049 43.7851 70.8593 44.2525 70.4663 45.0888L70.4172 45.0642C70.4663 44.1049 70.4909 43.4408 70.4909 42.383V39.5788H69.3365V46.245H70.7365C71.4488 45.0642 72.1856 43.7851 72.8242 42.752C73.2172 42.0878 73.5119 41.5467 73.9295 40.6857H73.9786C73.9295 41.7681 73.9049 42.3338 73.9049 43.4161V46.245H75.0593V39.5788H73.6347L71.547 43.0226ZM82.1821 39.5788H80.8803L79.947 41.0055C79.7259 41.3745 79.5049 41.7189 79.2838 42.1124H79.2347C79.0137 41.7435 78.8172 41.3991 78.547 41.0301L77.5891 39.6034H76.2382L78.4979 42.875L76.1154 46.2942H77.4417L78.3996 44.7937C78.6452 44.4001 78.8909 44.0311 79.1119 43.6375H79.1365C79.3821 44.0311 79.6031 44.4001 79.8488 44.7937L80.8312 46.2942H82.2066L79.8733 42.8504L82.1821 39.5788ZM89.8207 39.4312C88.74 39.4312 87.954 39.9232 87.4382 40.7349L87.3891 39.5788H86.3084C86.333 40.2184 86.3575 40.9071 86.3575 41.7681V49H87.561V45.384H87.5856C87.9786 46.0482 88.7645 46.4418 89.6488 46.4418C91.2207 46.4418 92.6944 45.261 92.6944 42.8504C92.6698 40.8087 91.4417 39.4312 89.8207 39.4312ZM89.4277 45.4578C88.5681 45.4578 87.8312 44.8675 87.6102 44.0311C87.5856 43.8835 87.561 43.7113 87.561 43.5391V42.383C87.561 42.2108 87.6102 42.0386 87.6347 41.8911C87.8803 40.9809 88.6417 40.3905 89.4768 40.3905C90.754 40.3905 91.4663 41.5467 91.4663 42.875C91.4417 44.4001 90.7049 45.4578 89.4277 45.4578ZM96.8452 39.4312C94.9049 39.4312 93.7259 41.0055 93.7259 43.0226C93.7259 45.0396 94.954 46.3926 97.0172 46.3926C98.0733 46.3926 98.8102 46.1712 99.2277 45.9744L99.0312 45.1134C98.5645 45.3102 98.0488 45.4578 97.1891 45.4578C95.9856 45.4578 94.9295 44.7937 94.9049 43.1456H99.5961C99.6207 43.0226 99.6452 42.8258 99.6452 42.5798C99.5961 41.3499 99.0066 39.4312 96.8452 39.4312ZM94.8803 42.2846C94.9786 41.4483 95.5189 40.3168 96.747 40.3168C98.1224 40.3168 98.4417 41.5221 98.4417 42.2846H94.8803ZM108.094 45.3102H105.761V39.5788H104.582V45.3102H102.249V39.5788H101.07V46.245H109.298V39.5788H108.094V45.3102ZM113.915 39.4312C111.975 39.4312 110.796 41.0055 110.796 43.0226C110.796 45.0396 112.024 46.3926 114.087 46.3926C115.143 46.3926 115.88 46.1712 116.298 45.9744L116.101 45.1134C115.635 45.3102 115.119 45.4578 114.259 45.4578C113.056 45.4578 112 44.7937 111.975 43.1456H116.666C116.691 43.0226 116.715 42.8258 116.715 42.5798C116.691 41.3499 116.101 39.4312 113.915 39.4312ZM111.975 42.2846C112.073 41.4483 112.614 40.3168 113.842 40.3168C115.217 40.3168 115.536 41.5221 115.536 42.2846H111.975ZM122.536 42.2846H119.368V39.6034H118.165V46.2696H119.368V43.244H122.536V46.2696H123.74V39.6034H122.536V42.2846ZM127.891 43.0226C127.449 43.7851 127.203 44.2525 126.81 45.0888L126.761 45.0642C126.81 44.1049 126.835 43.4408 126.835 42.383V39.5788H125.68V46.245H127.08C127.793 45.0642 128.529 43.7851 129.168 42.752C129.561 42.0878 129.856 41.5467 130.273 40.6857H130.322C130.273 41.7681 130.249 42.3338 130.249 43.4161V46.245H131.403V39.5788H129.979L127.891 43.0226ZM136.119 38.5703C137.175 38.5703 137.887 37.9799 137.961 36.8484H137.101C137.028 37.4633 136.758 37.9061 136.168 37.9061C135.628 37.9061 135.333 37.4387 135.284 36.8484H134.4C134.424 37.8077 134.915 38.5703 136.119 38.5703ZM135.529 43.0226C135.087 43.7851 134.842 44.2525 134.449 45.0888L134.4 45.0642C134.449 44.1049 134.473 43.4408 134.473 42.383V39.5788H133.319V46.245H134.719C135.431 45.0642 136.168 43.7851 136.807 42.752C137.2 42.0878 137.494 41.5467 137.912 40.6857H137.961C137.912 41.7681 137.887 42.3338 137.887 43.4161V46.245H139.042V39.5788H137.617L135.529 43.0226Z" fill="#1B74FD"/>
</g>
<defs>
<clipPath id="clip0_136_671">
<rect width="140" height="49" fill="white"/>
</clipPath>
</defs>
</svg>
