<svg width="22" height="22" viewBox="0 0 22 22" fill="none" xmlns="http://www.w3.org/2000/svg">
<circle cx="11" cy="11" r="11" fill="#1B57B4"/>
<path d="M11.294 14.0909V13.554C11.294 13.1695 11.3736 12.8182 11.5327 12.5C11.6951 12.1785 11.9304 11.9216 12.2386 11.7294C12.5502 11.5339 12.9264 11.4361 13.3672 11.4361C13.8179 11.4361 14.1958 11.5322 14.5007 11.7244C14.8056 11.9167 15.036 12.1735 15.1918 12.495C15.3509 12.8165 15.4304 13.1695 15.4304 13.554V14.0909C15.4304 14.4754 15.3509 14.8284 15.1918 15.1499C15.0327 15.468 14.799 15.7249 14.4908 15.9205C14.1858 16.1127 13.8113 16.2088 13.3672 16.2088C12.9197 16.2088 12.5419 16.1127 12.2337 15.9205C11.9254 15.7249 11.6918 15.468 11.5327 15.1499C11.3736 14.8284 11.294 14.4754 11.294 14.0909ZM12.4524 13.554V14.0909C12.4524 14.3759 12.5204 14.6345 12.6562 14.8665C12.7921 15.0985 13.0291 15.2145 13.3672 15.2145C13.7019 15.2145 13.9356 15.0985 14.0682 14.8665C14.2008 14.6345 14.267 14.3759 14.267 14.0909V13.554C14.267 13.2689 14.2024 13.0104 14.0732 12.7784C13.9472 12.5464 13.7119 12.4304 13.3672 12.4304C13.0357 12.4304 12.8004 12.5464 12.6612 12.7784C12.522 13.0104 12.4524 13.2689 12.4524 13.554ZM6.1733 8.2642V7.72727C6.1733 7.3428 6.25284 6.98982 6.41193 6.66832C6.57434 6.34683 6.80966 6.08996 7.1179 5.89773C7.42945 5.70549 7.80563 5.60938 8.24645 5.60938C8.69721 5.60938 9.07505 5.70549 9.37997 5.89773C9.6849 6.08996 9.91525 6.34683 10.071 6.66832C10.2268 6.98982 10.3047 7.3428 10.3047 7.72727V8.2642C10.3047 8.64867 10.2251 9.00166 10.0661 9.32315C9.91027 9.64134 9.67827 9.8982 9.37003 10.0938C9.0651 10.286 8.69058 10.3821 8.24645 10.3821C7.79569 10.3821 7.41619 10.286 7.10795 10.0938C6.80303 9.8982 6.57102 9.64134 6.41193 9.32315C6.25284 9.00166 6.1733 8.64867 6.1733 8.2642ZM7.33665 7.72727V8.2642C7.33665 8.54924 7.40294 8.80776 7.53551 9.03977C7.6714 9.27178 7.90838 9.38778 8.24645 9.38778C8.57789 9.38778 8.8099 9.27178 8.94247 9.03977C9.07836 8.80776 9.14631 8.54924 9.14631 8.2642V7.72727C9.14631 7.44223 9.08168 7.18371 8.95241 6.9517C8.82315 6.7197 8.58783 6.60369 8.24645 6.60369C7.91501 6.60369 7.67969 6.7197 7.54048 6.9517C7.40459 7.18371 7.33665 7.44223 7.33665 7.72727ZM6.6456 16L13.6456 5.81818H14.8338L7.83381 16H6.6456Z" fill="white"/>
</svg>
